<svg width="381" height="125" viewBox="0 0 381 125" fill="none" xmlns="http://www.w3.org/2000/svg">
<path d="M2.00058 20.7572L2.00058 106.502" stroke="#5D5D5D" stroke-opacity="0.52" stroke-width="4" stroke-linecap="round"/>
<path d="M36.9079 20.7572L36.9079 106.502" stroke="#5D5D5D" stroke-opacity="0.52" stroke-width="4" stroke-linecap="round"/>
<path d="M15.9635 20.7572L15.9635 99.8031" stroke="#5D5D5D" stroke-opacity="0.52" stroke-width="4" stroke-linecap="round"/>
<path d="M29.9264 11.3789L29.9264 115.88" stroke="#5D5D5D" stroke-opacity="0.52" stroke-width="4" stroke-linecap="round"/>
<path d="M43.8893 40.8537V82.3862" stroke="#5D5D5D" stroke-opacity="0.52" stroke-width="4" stroke-linecap="round"/>
<path d="M22.945 2.00058L22.945 122.579" stroke="#5D5D5D" stroke-opacity="0.52" stroke-width="4" stroke-linecap="round"/>
<path d="M8.98204 28.7958L8.98204 93.1043" stroke="#5D5D5D" stroke-opacity="0.52" stroke-width="4" stroke-linecap="round"/>
<path d="M50.8708 29.4657V89.7549" stroke="#5D5D5D" stroke-opacity="0.52" stroke-width="4" stroke-linecap="round"/>
<path d="M64.8337 20.7572V106.502" stroke="#5D5D5D" stroke-opacity="0.52" stroke-width="4" stroke-linecap="round"/>
<path d="M57.8523 15.3982L57.8523 110.521" stroke="#5D5D5D" stroke-opacity="0.52" stroke-width="4" stroke-linecap="round"/>
<path d="M85.7781 46.2127V70.3284" stroke="#5D5D5D" stroke-opacity="0.52" stroke-width="4" stroke-linecap="round"/>
<path d="M78.7966 40.1838V75.6874" stroke="#5D5D5D" stroke-opacity="0.52" stroke-width="4" stroke-linecap="round"/>
<path d="M92.7596 50.232V66.3091" stroke="#5D5D5D" stroke-opacity="0.52" stroke-width="4" stroke-linecap="round"/>
<path d="M71.8152 35.4946V83.0561" stroke="#5D5D5D" stroke-opacity="0.52" stroke-width="4" stroke-linecap="round"/>
<path d="M99.741 43.5332V73.0079" stroke="#5D5D5D" stroke-opacity="0.52" stroke-width="4" stroke-linecap="round"/>
<path d="M134.648 52.2416V65.6392" stroke="#5D5D5D" stroke-opacity="0.52" stroke-width="4" stroke-linecap="round"/>
<path d="M113.704 53.5814V63.6296" stroke="#5D5D5D" stroke-opacity="0.52" stroke-width="4" stroke-linecap="round"/>
<path d="M127.667 58.2705V60.2802" stroke="#5D5D5D" stroke-opacity="0.52" stroke-width="4" stroke-linecap="round"/>
<path d="M141.63 46.2127V70.3284" stroke="#5D5D5D" stroke-opacity="0.52" stroke-width="4" stroke-linecap="round"/>
<path d="M120.685 56.2609V60.9501" stroke="#5D5D5D" stroke-opacity="0.52" stroke-width="4" stroke-linecap="round"/>
<path d="M106.722 50.232V66.3091" stroke="#5D5D5D" stroke-opacity="0.52" stroke-width="4" stroke-linecap="round"/>
<path d="M239.37 38.1742V79.7068" stroke="#5D5D5D" stroke-opacity="0.52" stroke-width="4" stroke-linecap="round"/>
<path d="M246.352 26.7862V92.4345" stroke="#5D5D5D" stroke-opacity="0.52" stroke-width="4" stroke-linecap="round"/>
<path d="M260.315 18.0777V103.822" stroke="#5D5D5D" stroke-opacity="0.52" stroke-width="4" stroke-linecap="round"/>
<path d="M253.333 12.7187V107.842" stroke="#5D5D5D" stroke-opacity="0.52" stroke-width="4" stroke-linecap="round"/>
<path d="M281.259 43.5332V67.6489" stroke="#5D5D5D" stroke-opacity="0.52" stroke-width="4" stroke-linecap="round"/>
<path d="M274.278 37.5042V73.0079" stroke="#5D5D5D" stroke-opacity="0.52" stroke-width="4" stroke-linecap="round"/>
<path d="M288.24 47.5524V63.6296" stroke="#5D5D5D" stroke-opacity="0.52" stroke-width="4" stroke-linecap="round"/>
<path d="M267.296 32.8151V80.3766" stroke="#5D5D5D" stroke-opacity="0.52" stroke-width="4" stroke-linecap="round"/>
<path d="M295.222 40.8537V70.3284" stroke="#5D5D5D" stroke-opacity="0.52" stroke-width="4" stroke-linecap="round"/>
<path d="M309.185 50.9019V60.9501" stroke="#5D5D5D" stroke-opacity="0.52" stroke-width="4" stroke-linecap="round"/>
<path d="M316.166 53.5814V58.2705" stroke="#5D5D5D" stroke-opacity="0.52" stroke-width="4" stroke-linecap="round"/>
<path d="M302.203 47.5524V63.6296" stroke="#5D5D5D" stroke-opacity="0.52" stroke-width="4" stroke-linecap="round"/>
<path d="M155.593 20.7572V106.502" stroke="#5D5D5D" stroke-opacity="0.52" stroke-width="4" stroke-linecap="round"/>
<path d="M148.611 15.3982V110.521" stroke="#5D5D5D" stroke-opacity="0.52" stroke-width="4" stroke-linecap="round"/>
<path d="M176.537 46.2127V70.3284" stroke="#5D5D5D" stroke-opacity="0.52" stroke-width="4" stroke-linecap="round"/>
<path d="M169.556 40.1838V75.6874" stroke="#5D5D5D" stroke-opacity="0.52" stroke-width="4" stroke-linecap="round"/>
<path d="M183.519 50.232V66.3091" stroke="#5D5D5D" stroke-opacity="0.52" stroke-width="4" stroke-linecap="round"/>
<path d="M162.574 35.4946V83.0561" stroke="#5D5D5D" stroke-opacity="0.52" stroke-width="4" stroke-linecap="round"/>
<path d="M190.5 43.5332V73.0079" stroke="#5D5D5D" stroke-opacity="0.52" stroke-width="4" stroke-linecap="round"/>
<path d="M358.055 94.4441V15.3982" stroke="#5D5D5D" stroke-opacity="0.52" stroke-width="4" stroke-linecap="round"/>
<path d="M365.036 106.502V4.6801" stroke="#5D5D5D" stroke-opacity="0.52" stroke-width="4" stroke-linecap="round"/>
<path d="M337.111 68.9886V44.8729" stroke="#5D5D5D" stroke-opacity="0.52" stroke-width="4" stroke-linecap="round"/>
<path d="M344.092 75.0175V39.5139" stroke="#5D5D5D" stroke-opacity="0.52" stroke-width="4" stroke-linecap="round"/>
<path d="M330.129 64.9693V48.8922" stroke="#5D5D5D" stroke-opacity="0.52" stroke-width="4" stroke-linecap="round"/>
<path d="M351.074 79.7067V32.1452" stroke="#5D5D5D" stroke-opacity="0.52" stroke-width="4" stroke-linecap="round"/>
<path d="M323.148 71.6682V42.1934" stroke="#5D5D5D" stroke-opacity="0.52" stroke-width="4" stroke-linecap="round"/>
<path d="M225.407 52.2416V65.6392" stroke="#5D5D5D" stroke-opacity="0.52" stroke-width="4" stroke-linecap="round"/>
<path d="M204.463 53.5814V63.6296" stroke="#5D5D5D" stroke-opacity="0.52" stroke-width="4" stroke-linecap="round"/>
<path d="M218.426 58.2705V60.2802" stroke="#5D5D5D" stroke-opacity="0.52" stroke-width="4" stroke-linecap="round"/>
<path d="M232.389 46.2127V70.3284" stroke="#5D5D5D" stroke-opacity="0.52" stroke-width="4" stroke-linecap="round"/>
<path d="M211.444 56.2609V60.9501" stroke="#5D5D5D" stroke-opacity="0.52" stroke-width="4" stroke-linecap="round"/>
<path d="M197.481 50.232V66.3091" stroke="#5D5D5D" stroke-opacity="0.52" stroke-width="4" stroke-linecap="round"/>
<path d="M372.018 10.0391V95.7838" stroke="#5D5D5D" stroke-opacity="0.52" stroke-width="4" stroke-linecap="round"/>
<path d="M378.999 15.3982V91.7645" stroke="#5D5D5D" stroke-opacity="0.52" stroke-width="4" stroke-linecap="round"/>
</svg>
