<svg width="76" height="48" viewBox="0 0 76 48" fill="none" xmlns="http://www.w3.org/2000/svg">
<path d="M56.7965 47.7658H2.10428C0.991495 47.7658 0.0894601 46.8992 0.0894601 45.83V16.8293C0.0894601 15.7602 0.991495 14.8935 2.10428 14.8935H2.14014C3.14856 14.8935 4.00184 15.6099 4.13683 16.5701C4.91193 22.0809 9.86959 26.2367 15.6688 26.2367C21.4681 26.2367 26.426 22.0809 27.2009 16.5701C27.3359 15.6099 28.1891 14.8935 29.1976 14.8935H29.3227C30.4355 14.8935 31.3375 15.7602 31.3375 16.8293C31.3375 22.9956 36.5589 28.0121 42.9767 28.0121C49.3947 28.0121 54.6159 22.9954 54.6159 16.8293C54.6159 15.7602 55.5179 14.8935 56.6307 14.8935H56.7965C57.9093 14.8935 58.8114 15.7602 58.8114 16.8293V45.8298C58.8114 46.899 57.9093 47.7658 56.7965 47.7658ZM4.1191 43.8942H54.7817V26.7184C51.9072 29.8819 47.6805 31.8839 42.9767 31.8839C36.7257 31.8839 31.3177 28.3481 28.8053 23.2494C25.9849 27.3984 21.101 30.1085 15.6688 30.1085C11.1482 30.1085 7.00694 28.2314 4.1191 25.2102V43.8942Z" fill="black"/>
<path d="M73.9852 43.1681C73.7726 43.1681 73.5593 43.1358 73.3523 43.0702L55.9979 37.5531C55.173 37.291 54.6159 36.5502 54.6159 35.7153V27.3783C54.6159 26.5939 55.1085 25.887 55.8635 25.5883L73.2179 18.7226C73.8397 18.4765 74.5479 18.5449 75.1062 18.9041C75.6647 19.2634 76 19.8668 76 20.5126V41.2325C76 41.8539 75.6893 42.4377 75.1651 42.8017C74.8173 43.0429 74.4037 43.1681 73.9852 43.1681ZM58.6456 34.3166L71.9704 38.5528V23.403L58.6456 28.6745V34.3166Z" fill="black"/>
<path d="M15.6688 30.1086C7.86182 30.1086 1.18733 24.5112 0.143253 17.0887C0.0481539 16.4139 0 15.7294 0 15.0544C0 6.75345 7.0289 0 15.6688 0C24.3088 0 31.3377 6.75325 31.3377 15.0544C31.3377 15.7294 31.2895 16.4139 31.1944 17.0891C30.1506 24.5112 23.4759 30.1086 15.6688 30.1086ZM15.6688 3.87142C9.25104 3.87142 4.02964 8.88806 4.02964 15.0542C4.02964 15.5561 4.0657 16.066 4.13663 16.5699C4.91173 22.0812 9.86959 26.237 15.6688 26.237C21.4681 26.237 26.426 22.0812 27.2009 16.5703C27.272 16.0662 27.3079 15.5561 27.3079 15.0542C27.3081 8.88806 22.0866 3.87142 15.6688 3.87142Z" fill="black"/>
<path d="M42.9767 31.8839C34.337 31.8839 27.3079 25.1304 27.3079 16.8295C27.3079 8.52858 34.3368 1.77513 42.9767 1.77513C51.6167 1.77513 58.6455 8.52838 58.6455 16.8295C58.6455 25.1306 51.6167 31.8839 42.9767 31.8839ZM42.9767 5.64674C36.5589 5.64674 31.3375 10.6634 31.3375 16.8295C31.3375 22.9958 36.5589 28.0123 42.9767 28.0123C49.3947 28.0123 54.6159 22.9956 54.6159 16.8295C54.6159 10.6632 49.3947 5.64674 42.9767 5.64674Z" fill="black"/>
<path d="M22.0492 41.2066H9.28852C8.17573 41.2066 7.2737 40.3399 7.2737 39.2708C7.2737 38.2016 8.17573 37.335 9.28852 37.335H22.0492C23.162 37.335 24.064 38.2016 24.064 39.2708C24.064 40.3399 23.162 41.2066 22.0492 41.2066Z" fill="black"/>
</svg>
