<svg width="115" height="118" viewBox="0 0 115 118" fill="none" xmlns="http://www.w3.org/2000/svg">
<g clip-path="url(#clip0_50_2055)" filter="url(#filter0_d_50_2055)">
<path d="M76.1379 34.22C76.1379 32.6994 74.3498 31.4667 72.1441 31.4667C69.9383 31.4667 68.1502 32.6994 68.1502 34.22V83.78C68.1502 85.3006 69.9383 86.5333 72.1441 86.5333C74.3498 86.5333 76.1379 85.3006 76.1379 83.78V34.22Z" fill="#FB8EC9" fill-opacity="0.73"/>
<path d="M46.8497 34.22C46.8497 32.6994 45.0616 31.4667 42.8559 31.4667C40.6502 31.4667 38.8621 32.6994 38.8621 34.22V83.78C38.8621 85.3006 40.6502 86.5333 42.8559 86.5333C45.0616 86.5333 46.8497 85.3006 46.8497 83.78V34.22Z" fill="#FB8EC9" fill-opacity="0.73"/>
</g>
<g filter="url(#filter1_d_50_2055)">
<path d="M110 59C110 88.9455 86.3743 113 57.5 113C28.6257 113 5 88.9455 5 59C5 29.0545 28.6257 5 57.5 5C86.3743 5 110 29.0545 110 59Z" stroke="#FB8EC9" stroke-opacity="0.59" stroke-width="10" shape-rendering="crispEdges"/>
</g>
<defs>
<filter id="filter0_d_50_2055" x="34.8621" y="31.4667" width="45.2759" height="63.0667" filterUnits="userSpaceOnUse" color-interpolation-filters="sRGB">
<feFlood flood-opacity="0" result="BackgroundImageFix"/>
<feColorMatrix in="SourceAlpha" type="matrix" values="0 0 0 0 0 0 0 0 0 0 0 0 0 0 0 0 0 0 127 0" result="hardAlpha"/>
<feOffset dy="4"/>
<feGaussianBlur stdDeviation="2"/>
<feComposite in2="hardAlpha" operator="out"/>
<feColorMatrix type="matrix" values="0 0 0 0 0 0 0 0 0 0 0 0 0 0 0 0 0 0 0.25 0"/>
<feBlend mode="normal" in2="BackgroundImageFix" result="effect1_dropShadow_50_2055"/>
<feBlend mode="normal" in="SourceGraphic" in2="effect1_dropShadow_50_2055" result="shape"/>
</filter>
<filter id="filter1_d_50_2055" x="-4" y="0" width="123" height="126" filterUnits="userSpaceOnUse" color-interpolation-filters="sRGB">
<feFlood flood-opacity="0" result="BackgroundImageFix"/>
<feColorMatrix in="SourceAlpha" type="matrix" values="0 0 0 0 0 0 0 0 0 0 0 0 0 0 0 0 0 0 127 0" result="hardAlpha"/>
<feOffset dy="4"/>
<feGaussianBlur stdDeviation="2"/>
<feComposite in2="hardAlpha" operator="out"/>
<feColorMatrix type="matrix" values="0 0 0 0 0 0 0 0 0 0 0 0 0 0 0 0 0 0 0.25 0"/>
<feBlend mode="normal" in2="BackgroundImageFix" result="effect1_dropShadow_50_2055"/>
<feBlend mode="normal" in="SourceGraphic" in2="effect1_dropShadow_50_2055" result="shape"/>
</filter>
<clipPath id="clip0_50_2055">
<rect width="37.2759" height="55.0667" fill="white" transform="translate(38.8621 31.4667)"/>
</clipPath>
</defs>
</svg>
