<svg width="24" height="26" viewBox="0 0 24 26" fill="none" xmlns="http://www.w3.org/2000/svg">
<path d="M11.9998 12.795C13.0382 12.795 14.0532 12.4667 14.9166 11.8516C15.7799 11.2365 16.4528 10.3622 16.8502 9.33936C17.2476 8.31649 17.3515 7.19096 17.1489 6.1051C16.9464 5.01923 16.4464 4.0218 15.7121 3.23894C14.9779 2.45607 14.0425 1.92293 13.0241 1.70694C12.0057 1.49095 10.9501 1.6018 9.99077 2.02549C9.03146 2.44917 8.21153 3.16665 7.63466 4.08721C7.05778 5.00776 6.74988 6.09003 6.74988 7.19717C6.74988 8.6818 7.303 10.1056 8.28756 11.1554C9.27212 12.2052 10.6075 12.795 11.9998 12.795ZM11.9998 3.19875C12.7415 3.19875 13.4665 3.43325 14.0832 3.8726C14.6999 4.31196 15.1806 4.93643 15.4644 5.66704C15.7482 6.39766 15.8225 7.20161 15.6778 7.97723C15.5331 8.75285 15.1759 9.4653 14.6515 10.0245C14.127 10.5837 13.4589 10.9645 12.7314 11.1188C12.004 11.273 11.25 11.1939 10.5648 10.8912C9.87957 10.5886 9.29391 10.0761 8.88185 9.41858C8.4698 8.76104 8.24987 7.98799 8.24987 7.19717C8.24987 6.13673 8.64495 5.11971 9.34821 4.36986C10.0515 3.62001 11.0053 3.19875 11.9998 3.19875Z" fill="#B8AEAE"/>
<path d="M12.75 14.3943H11.25C9.06193 14.3943 6.96353 15.3211 5.41636 16.9708C3.86919 18.6204 3 20.8579 3 23.1909C3 23.403 3.07902 23.6064 3.21967 23.7563C3.36032 23.9063 3.55108 23.9905 3.75 23.9905H20.2499C20.4488 23.9905 20.6396 23.9063 20.7802 23.7563C20.9209 23.6064 20.9999 23.403 20.9999 23.1909C20.9999 20.8579 20.1307 18.6204 18.5836 16.9708C17.0364 15.3211 14.938 14.3943 12.75 14.3943ZM4.54499 22.3912C4.72941 20.6324 5.51512 19.0077 6.75199 17.8276C7.98886 16.6474 9.59017 15.9945 11.25 15.9937H12.75C14.4097 15.9945 16.0111 16.6474 17.2479 17.8276C18.4848 19.0077 19.2705 20.6324 19.4549 22.3912H4.54499Z" fill="#B8AEAE"/>
</svg>
