<svg width="9" height="5" viewBox="0 0 9 5" fill="none" xmlns="http://www.w3.org/2000/svg">
<path d="M4.42259 4.99998C3.91632 4.99998 3.4086 4.90416 2.91615 4.70923C1.76152 4.25328 0.832944 3.31331 0.300876 2.06277C0.198024 1.82364 0.108981 1.56428 0.0366573 1.29418C-0.0985404 0.789502 0.151866 0.255504 0.596347 0.10187C1.04083 -0.0525895 1.51075 0.232786 1.64558 0.737878C1.6921 0.911335 1.74843 1.07612 1.81349 1.22769C2.15148 2.02146 2.73843 2.61576 3.46857 2.90486C4.19835 3.19354 4.98337 3.1415 5.67935 2.75866C6.42257 2.35021 6.97826 1.59773 7.20395 0.695341C7.33115 0.187358 7.79853 -0.108343 8.24301 0.0370311C8.68967 0.181579 8.94844 0.710621 8.82196 1.21778C8.4647 2.64467 7.58628 3.83327 6.4113 4.47878C5.7811 4.82569 5.1033 4.99998 4.42259 4.99998Z" fill="black"/>
</svg>
