<svg width="19" height="26" viewBox="0 0 19 26" fill="none" xmlns="http://www.w3.org/2000/svg">
<g clip-path="url(#clip0_141_98)">
<path fill-rule="evenodd" clip-rule="evenodd" d="M16.625 8.40777H15.4375V6.16569C15.4375 3.02679 12.825 0.560512 9.49997 0.560512C6.17498 0.560512 3.56249 3.02679 3.56249 6.16569V8.40777H2.37499C1.06875 8.40777 0 9.4167 0 10.6498V21.8602C0 23.0933 1.06875 24.1023 2.37499 24.1023H16.625C17.9312 24.1023 18.9999 23.0933 18.9999 21.8602V10.6498C18.9999 9.4167 17.9312 8.40777 16.625 8.40777ZM9.49997 2.69048C11.5187 2.69048 13.1812 4.25993 13.1812 6.16569V8.40777H5.93748V6.16569H5.81873C5.81873 4.25993 7.48123 2.69048 9.49997 2.69048ZM16.625 21.8602H2.37499V10.6498H16.625V21.8602ZM9.49997 18.4971C10.8062 18.4971 11.875 17.4882 11.875 16.255C11.875 15.0219 10.8062 14.0129 9.49997 14.0129C8.19373 14.0129 7.12498 15.0219 7.12498 16.255C7.12498 17.4882 8.19373 18.4971 9.49997 18.4971Z" fill="#B8AEAE"/>
</g>
<defs>
<clipPath id="clip0_141_98">
<rect width="18.4611" height="25.0526" fill="white" transform="scale(1.02919)"/>
</clipPath>
</defs>
</svg>
