<svg width="76" height="45" viewBox="0 0 76 45" fill="none" xmlns="http://www.w3.org/2000/svg">
<path d="M75.2011 44.9329H0.798832C0.582088 44.9329 0.374317 44.8329 0.223493 44.6553C0.0730147 44.4776 -0.00740153 44.2384 0.000536561 43.9921C0.430229 30.6742 7.04369 18.6035 17.7456 11.5106L12.8216 3.76C12.4954 3.24622 12.3646 2.6191 12.4537 1.99355C12.5427 1.36799 12.8409 0.818911 13.2934 0.448284C13.6527 0.15492 14.0741 0 14.5141 0C15.1833 0 15.8163 0.36788 16.2073 0.983631L21.5065 9.32568C26.6791 6.69756 32.2243 5.36527 38.0005 5.36527C43.8757 5.36527 49.5035 6.73875 54.7392 9.44844L60.1164 0.983631C60.5084 0.36788 61.1414 0 61.8099 0C62.25 0 62.6721 0.155313 63.0303 0.448284C63.9643 1.21425 64.1758 2.6995 63.5025 3.76039L58.4797 11.6655C69.0439 18.7796 75.5735 30.793 75.9994 43.9921C76.0074 44.2388 75.9273 44.4776 75.7765 44.6553C75.626 44.8329 75.4182 44.9329 75.2011 44.9329ZM1.6382 43.1179H74.3618C73.666 30.6087 67.1954 19.3048 56.9232 12.7402C56.7247 12.6135 56.5839 12.397 56.5349 12.144C56.4855 11.8914 56.5339 11.6275 56.6671 11.4177L62.2072 2.69793C62.3652 2.44888 62.3152 2.10022 62.0964 1.9202C61.9897 1.83352 61.8821 1.81431 61.8099 1.81431C61.6501 1.81431 61.5045 1.89941 61.4113 2.04609L55.8608 10.7823C55.8429 10.8109 55.8229 10.8588 55.8015 10.9251C55.7242 11.1655 55.562 11.3581 55.3532 11.4545C55.1444 11.551 54.91 11.5436 54.7071 11.4334C49.5031 8.6111 43.8823 7.17958 38.0005 7.17958C32.2274 7.17958 26.6963 8.56325 21.5604 11.293C21.1645 11.5028 20.691 11.3118 20.5019 10.8619C20.4905 10.8353 20.4787 10.807 20.4625 10.7815L14.9117 2.04492C14.8185 1.89824 14.6739 1.81392 14.5141 1.81392C14.4423 1.81392 14.334 1.83313 14.2266 1.9202C14.1214 2.00648 14.0513 2.13552 14.0306 2.2822C14.0095 2.42888 14.0399 2.57635 14.1169 2.69676L19.5621 11.2678C19.6956 11.4781 19.7439 11.7436 19.6939 11.9969C19.6438 12.2503 19.5013 12.4672 19.3011 12.5927C8.89223 19.1365 2.33813 30.495 1.6382 43.1179Z" fill="black"/>
</svg>
