<svg width="48" height="79" viewBox="0 0 48 79" fill="none" xmlns="http://www.w3.org/2000/svg">
<path d="M24 55.6661C10.7662 55.6661 0 45.3838 0 32.7448V16.3724H3.42857V32.7448C3.42857 43.5779 12.6563 52.3917 24 52.3917C35.3438 52.3917 44.5714 43.5779 44.5714 32.7448V16.3724H48V32.7448C48 45.3838 37.2338 55.6661 24 55.6661Z" fill="black"/>
<path d="M24 45.8427C16.4381 45.8427 10.2857 39.9669 10.2857 32.7448V13.0979C10.2857 5.87583 16.4381 0 24 0C31.5619 0 37.7143 5.87583 37.7143 13.0979V32.7448C37.7143 39.9669 31.5619 45.8427 24 45.8427ZM24 3.27448C18.3281 3.27448 13.7143 7.68095 13.7143 13.0979V32.7448C13.7143 38.1617 18.3281 42.5682 24 42.5682C29.6719 42.5682 34.2857 38.1617 34.2857 32.7448V13.0979C34.2857 7.68095 29.6719 3.27448 24 3.27448Z" fill="black"/>
<path d="M46.2857 21.2841H36V24.5586H46.2857V21.2841Z" fill="black"/>
<path d="M12 21.2841H1.71429V24.5586H12V21.2841Z" fill="black"/>
<path d="M35.923 9.82342H29.1429V13.0979H35.923V9.82342Z" fill="black"/>
<path d="M35.923 18.0096H29.1429V21.2841H35.923V18.0096Z" fill="black"/>
<path d="M35.923 26.1958H29.1429V29.4703H35.923V26.1958Z" fill="black"/>
<path d="M18.7801 9.82342H12V13.0979H18.7801V9.82342Z" fill="black"/>
<path d="M18.7801 18.0096H12V21.2841H18.7801V18.0096Z" fill="black"/>
<path d="M18.7801 26.1958H12V29.4703H18.7801V26.1958Z" fill="black"/>
<path d="M25.7143 54.0289H22.2857V76.9503H25.7143V54.0289Z" fill="black"/>
<path d="M36 75.313H12V78.5875H36V75.313Z" fill="black"/>
</svg>
