<svg width="364" height="80" viewBox="0 0 364 80" fill="none" xmlns="http://www.w3.org/2000/svg">
<path d="M124.344 53.7185L128.734 46.7697C129.063 46.2478 128.96 45.5178 128.503 45.1413C128.045 44.7641 127.407 44.8813 127.077 45.4041L122.68 52.3653C122.623 52.4563 122.583 52.5544 122.551 52.6553C118.504 50.4478 113.913 49.1953 109.042 49.1953C104.258 49.1953 99.7444 50.405 95.7497 52.5406C95.7246 52.4806 95.6959 52.421 95.6609 52.3653L91.2634 45.4041C90.9337 44.8813 90.2963 44.7647 89.838 45.14C89.3803 45.5178 89.2775 46.2472 89.6075 46.7697L93.9215 53.5985C85.5863 58.8681 79.9191 68.3594 79.5693 79.2769H138.516C138.168 68.4391 132.579 59.0103 124.344 53.7185Z" fill="#B6D152"/>
<path d="M94.787 57.0463C94.641 57.0463 94.4991 56.9597 94.4209 56.8041C94.305 56.5734 94.3747 56.2784 94.577 56.1462C95.154 55.7684 95.7539 55.4078 96.3596 55.0747C96.5698 54.9591 96.822 55.0603 96.9229 55.3003C97.0238 55.5403 96.9352 55.8281 96.7254 55.9438C96.1381 56.2666 95.5562 56.6159 94.9965 56.9828C94.9303 57.0259 94.8584 57.0463 94.787 57.0463Z" fill="#F1F2F2"/>
<path d="M85.089 68.2303C85.0209 68.2303 84.9517 68.2113 84.8875 68.1716C84.6835 68.0441 84.6075 67.7516 84.7188 67.5178C86.6238 63.5191 89.4476 60.0038 92.8839 57.3519C93.0777 57.2028 93.3394 57.2609 93.4701 57.4819C93.6003 57.7022 93.5497 58.0019 93.3564 58.1509C90.0314 60.7169 87.3003 64.1153 85.4595 67.9788C85.3832 68.1394 85.2386 68.2303 85.089 68.2303Z" fill="#F1F2F2"/>
<path d="M118.489 64.1781C118.489 70.5563 115.545 76.1466 111.126 79.2766H138.516C138.168 68.4388 132.579 59.01 124.344 53.7184L128.734 46.7697C129.063 46.2478 128.96 45.5178 128.503 45.1413C128.045 44.7641 127.407 44.8813 127.077 45.4041L122.68 52.3653C122.623 52.4563 122.583 52.5544 122.551 52.6553C119.17 50.8109 115.41 49.6369 111.426 49.2988C115.676 52.4669 118.489 57.9453 118.489 64.1781Z" fill="#9FB543"/>
<path d="M138.516 80H79.5693C79.3976 80 79.2333 79.9203 79.1135 79.7787C78.9946 79.6372 78.9311 79.4465 78.9369 79.2503C79.277 68.6381 84.5164 59.0203 92.9951 53.3684L89.0943 47.1934C88.5605 46.3481 88.7281 45.1641 89.4675 44.5544C89.7524 44.3206 90.0866 44.1972 90.4349 44.1972C90.9649 44.1972 91.4666 44.4903 91.7761 44.9812L95.9748 51.6278C100.072 49.5337 104.465 48.4722 109.042 48.4722C113.697 48.4722 118.155 49.5665 122.303 51.7256L126.564 44.9809C126.874 44.4903 127.375 44.1972 127.905 44.1972C128.254 44.1972 128.588 44.3209 128.872 44.5547C129.231 44.8503 129.466 45.2872 129.538 45.7856C129.608 46.2841 129.505 46.7837 129.246 47.1931L125.267 53.4922C133.637 59.1606 138.81 68.7328 139.148 79.2503C139.154 79.4465 139.09 79.6372 138.971 79.7787C138.852 79.9203 138.688 80 138.516 80ZM80.2341 78.5537H137.851C137.299 68.5862 132.173 59.579 124.034 54.3484C123.878 54.2475 123.766 54.0747 123.727 53.8734C123.688 53.6722 123.726 53.4615 123.832 53.2947L128.221 46.3466C128.282 46.2509 128.306 46.1334 128.289 46.0159C128.273 45.8991 128.217 45.7965 128.134 45.7275C128.049 45.6578 127.963 45.6428 127.906 45.6428C127.78 45.6428 127.665 45.7097 127.59 45.8269L123.193 52.7878C123.179 52.8103 123.163 52.8481 123.146 52.9019C123.085 53.0934 122.956 53.2469 122.791 53.324C122.626 53.4009 122.44 53.3953 122.279 53.3072C118.157 51.0581 113.703 49.9175 109.043 49.9175C104.469 49.9175 100.087 51.02 96.0182 53.1947C95.703 53.3625 95.3297 53.21 95.1799 52.8522C95.1711 52.8315 95.1627 52.8094 95.1501 52.79L90.751 45.8262C90.6769 45.7094 90.5624 45.6425 90.436 45.6425C90.3786 45.6425 90.2927 45.6575 90.208 45.7272C90.0352 45.869 89.9958 46.1478 90.1216 46.3459L94.4353 53.1747C94.5414 53.3422 94.5794 53.554 94.5398 53.7559C94.5001 53.9578 94.3866 54.1303 94.2289 54.2306C85.9815 59.445 80.7889 68.4959 80.2341 78.5537Z" fill="#594A42"/>
<path d="M119.352 67.4856C117.454 67.4856 115.91 65.7206 115.91 63.5513C115.91 63.3438 115.924 63.1341 115.953 62.9275C116.008 62.5331 116.33 62.2653 116.677 62.3269C117.022 62.3891 117.257 62.7597 117.203 63.1538C117.185 63.2859 117.175 63.42 117.175 63.551C117.175 64.9225 118.151 66.0394 119.352 66.0394C119.973 66.0394 120.566 65.7347 120.98 65.2041C121.211 64.9072 121.612 64.8791 121.872 65.1453C122.134 65.4109 122.157 65.8681 121.924 66.166C121.272 67.0047 120.334 67.4856 119.352 67.4856Z" fill="#594A42"/>
<path d="M98.397 67.4856C97.415 67.4856 96.4774 67.0047 95.8245 66.1659C95.592 65.8681 95.615 65.4109 95.8764 65.1453C96.137 64.8788 96.5373 64.9063 96.7692 65.2041C97.1832 65.7347 97.776 66.0394 98.397 66.0394C99.5973 66.0394 100.574 64.9225 100.574 63.5509C100.574 63.4197 100.564 63.2856 100.546 63.1538C100.491 62.7594 100.727 62.3891 101.072 62.3269C101.419 62.2647 101.741 62.5331 101.796 62.9275C101.825 63.1341 101.839 63.3438 101.839 63.5513C101.84 65.7206 100.295 67.4856 98.397 67.4856Z" fill="#594A42"/>
<path d="M111.564 72.9275C111.289 72.9275 111.035 72.7197 110.956 72.4013C110.787 71.7184 110.369 71.15 109.81 70.8409C108.73 70.2428 107.424 70.7613 106.902 71.9966C106.851 72.1169 106.809 72.2413 106.776 72.3656C106.676 72.7488 106.322 72.9659 105.989 72.8519C105.654 72.7378 105.464 72.3353 105.563 71.9525C105.615 71.7547 105.682 71.5578 105.762 71.3675C106.589 69.4147 108.652 68.5938 110.361 69.5391C111.245 70.0275 111.906 70.9272 112.174 72.0072C112.269 72.3913 112.073 72.7909 111.737 72.8997C111.68 72.9184 111.622 72.9275 111.564 72.9275Z" fill="#594A42"/>
<g clip-path="url(#clip0_36_190)">
<path d="M344.425 53.7181L348.815 46.7703C349.145 46.2478 349.042 45.5175 348.584 45.1413C348.126 44.7644 347.488 44.8813 347.158 45.4041L342.761 52.3653C342.704 52.4566 342.664 52.5544 342.632 52.655C338.585 50.4475 333.994 49.1953 329.124 49.1953C324.339 49.1953 319.826 50.405 315.831 52.54C315.806 52.4803 315.777 52.4209 315.742 52.3653L311.344 45.4041C311.015 44.8813 310.377 44.7647 309.919 45.1403C309.461 45.5175 309.358 46.2472 309.688 46.7703L314.002 53.5991C305.667 58.8681 300 68.3594 299.65 79.2769H358.596C358.249 68.4391 352.66 59.0103 344.425 53.7181Z" fill="#FB6E52"/>
<path d="M314.868 57.0466C314.722 57.0466 314.58 56.9597 314.502 56.8044C314.386 56.5737 314.456 56.2787 314.658 56.1462C315.237 55.7669 315.837 55.4062 316.441 55.0747C316.651 54.9609 316.903 55.06 317.004 55.3006C317.105 55.5403 317.016 55.8284 316.806 55.9441C316.221 56.2653 315.639 56.6147 315.078 56.9828C315.011 57.0253 314.939 57.0466 314.868 57.0466Z" fill="#F1F2F2"/>
<path d="M305.17 68.2303C305.102 68.2303 305.033 68.2116 304.969 68.1716C304.764 68.0441 304.688 67.7513 304.8 67.5178C306.705 63.5184 309.529 60.0037 312.965 57.3522C313.158 57.2025 313.421 57.2609 313.551 57.4816C313.681 57.7022 313.63 58.0019 313.437 58.1512C310.112 60.7162 307.382 64.115 305.541 67.9784C305.464 68.1394 305.32 68.2303 305.17 68.2303Z" fill="#F1F2F2"/>
<path d="M338.57 64.1778C338.57 70.5563 335.626 76.1462 331.208 79.2766H358.596C358.249 68.4387 352.66 59.01 344.425 53.7181L348.815 46.7703C349.145 46.2478 349.042 45.5175 348.584 45.1412C348.126 44.7644 347.488 44.8812 347.158 45.4041L342.761 52.3653C342.704 52.4566 342.664 52.5544 342.632 52.655C339.252 50.8109 335.491 49.6372 331.506 49.2987C335.757 52.4672 338.57 57.9453 338.57 64.1778Z" fill="#DB5242"/>
<path d="M358.596 80H299.65C299.479 80 299.314 79.9197 299.195 79.7785C299.076 79.6375 299.012 79.4466 299.018 79.2503C299.359 68.6385 304.598 59.0203 313.077 53.3681L309.176 47.1931C308.642 46.3485 308.809 45.1644 309.549 44.5544C309.834 44.3203 310.168 44.1972 310.516 44.1972C311.047 44.1972 311.548 44.4903 311.858 44.9813L316.057 51.6272C320.154 49.5338 324.547 48.4725 329.124 48.4725C333.778 48.4725 338.237 49.5663 342.385 51.7253L346.646 44.981C346.955 44.4906 347.457 44.1972 347.986 44.1972C348.335 44.1972 348.67 44.321 348.954 44.5547C349.313 44.8503 349.549 45.2872 349.619 45.7856C349.69 46.2847 349.586 46.7844 349.328 47.1931L345.349 53.4922C353.719 59.1606 358.892 68.7328 359.229 79.2503C359.235 79.4469 359.172 79.6375 359.052 79.7785C358.933 79.9197 358.768 80 358.596 80ZM300.315 78.5538H357.931C357.38 68.586 352.254 59.5788 344.115 54.3485C343.958 54.2478 343.846 54.075 343.807 53.8735C343.769 53.6725 343.807 53.4616 343.912 53.2944L348.301 46.3466C348.362 46.25 348.387 46.1331 348.37 46.016C348.354 45.8991 348.298 45.7966 348.214 45.7272C348.129 45.6575 348.044 45.6428 347.986 45.6428C347.86 45.6428 347.745 45.7103 347.672 45.8269L343.274 52.7878C343.26 52.8113 343.244 52.8485 343.228 52.8991C343.167 53.0916 343.039 53.2456 342.873 53.3228C342.708 53.401 342.522 53.3953 342.36 53.3069C338.237 51.0578 333.784 49.9175 329.124 49.9175C324.55 49.9175 320.167 51.0197 316.099 53.1944C315.786 53.3616 315.411 53.2097 315.261 52.8525C315.252 52.8313 315.243 52.8091 315.231 52.7897L310.832 45.8263C310.758 45.7091 310.643 45.6422 310.516 45.6422C310.459 45.6422 310.373 45.6569 310.288 45.7266C310.116 45.8691 310.077 46.1475 310.202 46.3456L314.516 53.1747C314.622 53.3419 314.66 53.5538 314.62 53.7553C314.581 53.9572 314.467 54.13 314.309 54.2303C306.062 59.445 300.87 68.4956 300.315 78.5538Z" fill="#594A42"/>
<path d="M324.59 68.8088C324.457 68.8088 324.322 68.7803 324.192 68.7194L312.382 63.2141C311.843 62.9628 311.584 62.2597 311.804 61.6431C312.024 61.0269 312.639 60.7313 313.178 60.9825L324.988 66.4875C325.528 66.7391 325.787 67.4425 325.566 68.0591C325.4 68.5263 325.005 68.8088 324.59 68.8088Z" fill="#594A42"/>
<path d="M322.492 69.3356C322.492 71.2728 321.118 72.8428 319.423 72.8428C317.728 72.8428 316.354 71.2731 316.354 69.3356C316.354 67.3978 317.728 65.8275 319.423 65.8275C321.118 65.8275 322.492 67.3978 322.492 69.3356Z" fill="#594A42"/>
<path d="M333.026 68.8088C332.61 68.8088 332.216 68.5263 332.05 68.0591C331.83 67.4422 332.088 66.7388 332.627 66.4875L344.437 60.9825C344.976 60.7309 345.592 61.0272 345.812 61.6431C346.032 62.26 345.773 62.9631 345.234 63.2141L333.424 68.7194C333.294 68.7806 333.159 68.8088 333.026 68.8088Z" fill="#594A42"/>
<path d="M335.124 69.3356C335.124 71.2728 336.498 72.8428 338.193 72.8428C339.888 72.8428 341.262 71.2731 341.262 69.3356C341.262 67.3978 339.888 65.8275 338.193 65.8275C336.498 65.8275 335.124 67.3978 335.124 69.3356Z" fill="#594A42"/>
<path d="M344.254 53.7181L348.643 46.77C348.973 46.2481 348.87 45.5175 348.412 45.1413C347.954 44.7641 347.317 44.8816 346.986 45.4038L342.589 52.365C342.532 52.4563 342.492 52.5541 342.46 52.655C338.413 50.4475 333.822 49.1953 328.952 49.1953C324.167 49.1953 319.654 50.405 315.659 52.5403C315.634 52.4806 315.605 52.4206 315.57 52.365L311.172 45.4038C310.843 44.8816 310.205 44.7644 309.747 45.1403C309.289 45.5175 309.186 46.2475 309.517 46.77L313.831 53.5988C305.496 58.8685 299.829 68.3594 299.479 79.2769H358.425C358.077 68.4394 352.488 59.0103 344.254 53.7181Z" fill="#B6D152"/>
<path d="M314.696 57.0466C314.55 57.0466 314.408 56.9594 314.33 56.8044C314.214 56.5734 314.284 56.2787 314.486 56.1462C315.063 55.7681 315.663 55.4075 316.269 55.0744C316.479 54.9591 316.731 55.0606 316.832 55.3003C316.933 55.5406 316.844 55.8284 316.634 55.9438C316.047 56.2663 315.465 56.6159 314.906 56.9828C314.84 57.0256 314.767 57.0466 314.696 57.0466Z" fill="#F1F2F2"/>
<path d="M304.998 68.2306C304.93 68.2306 304.861 68.2112 304.797 68.1719C304.592 68.0447 304.517 67.7516 304.628 67.5178C306.533 63.5194 309.356 60.0041 312.793 57.3525C312.987 57.2028 313.249 57.2616 313.379 57.4819C313.509 57.7022 313.458 58.0022 313.265 58.1509C309.94 60.7175 307.209 64.1159 305.369 67.9791C305.292 68.1397 305.148 68.2306 304.998 68.2306Z" fill="#F1F2F2"/>
<path d="M338.398 64.1781C338.398 70.5559 335.454 76.1463 331.036 79.2766H358.425C358.077 68.4391 352.488 59.01 344.254 53.7181L348.643 46.77C348.973 46.2481 348.87 45.5175 348.412 45.1413C347.954 44.7641 347.317 44.8816 346.987 45.4038L342.589 52.365C342.532 52.4563 342.492 52.5541 342.46 52.655C339.08 50.8106 335.32 49.6369 331.335 49.2988C335.586 52.4672 338.398 57.9456 338.398 64.1781Z" fill="#9FB543"/>
<path d="M358.425 80H299.479C299.307 80 299.142 79.92 299.023 79.7785C298.904 79.6369 298.84 79.4463 298.846 79.25C299.187 68.6385 304.426 59.02 312.905 53.3681L309.003 47.1935C308.47 46.3481 308.637 45.1641 309.377 44.5541C309.662 44.3203 309.996 44.1972 310.344 44.1972C310.874 44.1972 311.376 44.4903 311.686 44.9813L315.884 51.6278C319.981 49.5338 324.375 48.4725 328.952 48.4725C333.606 48.4725 338.064 49.5666 342.213 51.7256L346.473 44.9806C346.784 44.49 347.285 44.1972 347.815 44.1972C348.163 44.1972 348.498 44.321 348.782 44.5547C349.141 44.85 349.377 45.2872 349.447 45.7856C349.518 46.2844 349.414 46.7838 349.156 47.1931L345.177 53.4925C353.547 59.161 358.72 68.7331 359.057 79.25C359.063 79.4466 359 79.6369 358.88 79.7785C358.761 79.92 358.597 80 358.425 80ZM300.144 78.5535H357.76C357.209 68.586 352.082 59.5788 343.944 54.3488C343.787 54.2475 343.675 54.0747 343.636 53.8735C343.597 53.6725 343.636 53.4622 343.741 53.295L348.13 46.3469C348.191 46.251 348.215 46.1335 348.199 46.0163C348.182 45.8994 348.126 45.7972 348.043 45.7275C347.958 45.6581 347.872 45.6431 347.815 45.6431C347.689 45.6431 347.574 45.7103 347.5 45.8272L343.102 52.7881C343.088 52.8106 343.073 52.8481 343.055 52.9025C342.994 53.0938 342.865 53.2472 342.7 53.3244C342.535 53.4013 342.348 53.3953 342.188 53.3072C338.066 51.0585 333.612 49.9178 328.952 49.9178C324.378 49.9178 319.996 51.0203 315.927 53.1947C315.612 53.3619 315.239 53.2103 315.089 52.8528C315.08 52.8322 315.071 52.81 315.059 52.7906L310.66 45.8266C310.586 45.7097 310.471 45.6428 310.345 45.6428C310.288 45.6428 310.202 45.6578 310.117 45.7272C309.944 45.8694 309.905 46.1478 310.03 46.3463L314.344 53.1753C314.45 53.3428 314.488 53.5547 314.448 53.7566C314.409 53.9581 314.296 54.131 314.137 54.2313C305.89 59.4447 300.698 68.4956 300.144 78.5535Z" fill="#594A42"/>
<path d="M318.138 66.7625C319.69 66.7625 320.949 65.3246 320.949 63.551C320.949 61.7773 319.69 60.3394 318.138 60.3394C316.587 60.3394 315.328 61.7773 315.328 63.551C315.328 65.3246 316.587 66.7625 318.138 66.7625Z" fill="#594A42"/>
<path d="M339.262 66.7622C340.813 66.7622 342.071 65.3245 342.071 63.5509C342.071 61.7774 340.813 60.3397 339.262 60.3397C337.71 60.3397 336.452 61.7774 336.452 63.5509C336.452 65.3245 337.71 66.7622 339.262 66.7622Z" fill="#594A42"/>
<path d="M319.26 68.7122C321.406 72.2565 325.085 76.029 329.163 76.0231C333.241 76.0297 336.92 72.2565 339.066 68.7122C332.629 66.3219 325.696 66.3219 319.26 68.7122Z" fill="#594A42"/>
<path d="M329.173 76.7459C329.173 76.7459 329.163 76.7459 329.162 76.7459C323.772 76.7459 319.822 70.9119 318.74 69.1237C318.626 68.9353 318.596 68.6975 318.66 68.4806C318.724 68.2641 318.874 68.095 319.064 68.0241C325.597 65.5984 332.729 65.5984 339.262 68.0241C339.451 68.095 339.601 68.2641 339.665 68.4806C339.73 68.6972 339.7 68.9359 339.586 69.1237C338.504 70.9119 334.552 76.7459 329.173 76.7459ZM320.292 69.1041C322.388 72.2325 325.665 75.2997 329.153 75.2997H329.173C332.66 75.2997 335.937 72.2325 338.033 69.1041C332.27 67.1641 326.055 67.1641 320.292 69.1041Z" fill="#594A42"/>
<path d="M324.672 74.6184C325.511 72.7512 327.21 71.4716 329.175 71.4716C331.14 71.4716 332.839 72.7516 333.678 74.6184" fill="#DD5A4B"/>
<path d="M333.679 75.3419C333.449 75.3419 333.227 75.1984 333.115 74.9488C332.352 73.25 330.842 72.1944 329.175 72.1944C327.508 72.1944 325.998 73.2503 325.235 74.9484C325.075 75.3034 324.693 75.4431 324.383 75.2616C324.072 75.0791 323.95 74.6431 324.109 74.2878C325.09 72.1047 327.031 70.7484 329.175 70.7484C331.319 70.7484 333.26 72.1047 334.24 74.2888C334.4 74.6444 334.278 75.0794 333.966 75.2619C333.874 75.3163 333.776 75.3419 333.679 75.3419Z" fill="#DD5A4B"/>
<path d="M329.175 71.4716C327.21 71.4716 325.511 72.7516 324.672 74.6184C326.069 75.5212 327.591 76.0931 329.175 76.0906C330.759 76.0937 332.281 75.5212 333.678 74.6184C332.839 72.7516 331.14 71.4716 329.175 71.4716Z" fill="#DD5A4B"/>
<path d="M329.187 76.8138H329.175C327.586 76.8138 325.969 76.2866 324.361 75.2478C324.066 75.0569 323.955 74.6331 324.11 74.2878C325.091 72.1047 327.031 70.7484 329.176 70.7484C331.32 70.7484 333.261 72.1047 334.241 74.2888C334.396 74.6338 334.285 75.0572 333.99 75.2478C332.381 76.2869 330.765 76.8138 329.187 76.8138ZM325.559 74.3359C326.78 75.0213 327.991 75.3675 329.166 75.3675H329.187C330.361 75.3675 331.57 75.0216 332.791 74.3366C331.969 73 330.632 72.1944 329.176 72.1944C327.719 72.1941 326.383 73 325.559 74.3359Z" fill="#DD5A4B"/>
</g>
<path d="M271.189 53.7188L275.578 46.7709C275.908 46.2484 275.805 45.5184 275.347 45.1416C274.89 44.7647 274.252 44.8822 273.921 45.405L269.524 52.3663C269.467 52.4569 269.427 52.555 269.395 52.6553C265.348 50.4478 260.757 49.1956 255.887 49.1956C251.102 49.1956 246.589 50.4063 242.594 52.5413C242.569 52.4816 242.54 52.4219 242.505 52.3653L238.107 45.4044C237.778 44.8822 237.14 44.7647 236.682 45.1413C236.225 45.5184 236.121 46.2481 236.451 46.7703L240.766 53.5997C232.431 58.8691 226.764 68.3597 226.414 79.2772H285.36C285.013 68.44 279.424 59.0109 271.189 53.7188Z" fill="#B6D152"/>
<path d="M241.631 57.0469C241.485 57.0469 241.343 56.9603 241.265 56.8053C241.149 56.5741 241.219 56.2794 241.421 56.1469C241.997 55.7691 242.597 55.4084 243.204 55.075C243.414 54.9609 243.665 55.0603 243.767 55.3006C243.868 55.5406 243.779 55.8281 243.569 55.9441C242.981 56.2672 242.399 56.6172 241.841 56.9838C241.775 57.0266 241.702 57.0469 241.631 57.0469Z" fill="#F1F2F2"/>
<path d="M231.933 68.2309C231.865 68.2309 231.796 68.2119 231.732 68.1722C231.527 68.0447 231.452 67.7516 231.563 67.5178C233.468 63.52 236.291 60.0044 239.728 57.3525C239.921 57.2028 240.184 57.2619 240.314 57.4819C240.444 57.7025 240.394 58.0022 240.2 58.1513C236.875 60.7178 234.144 64.1163 232.304 67.9794C232.227 68.14 232.082 68.2309 231.933 68.2309Z" fill="#F1F2F2"/>
<path d="M265.334 64.1788C265.334 70.5569 262.389 76.1466 257.971 79.2769H285.36C285.012 68.4397 279.424 59.0106 271.189 53.7188L275.578 46.771C275.908 46.2485 275.805 45.5185 275.347 45.1416C274.89 44.7647 274.252 44.8822 273.921 45.405L269.524 52.3663C269.467 52.4569 269.427 52.555 269.395 52.6553C266.015 50.8122 262.255 49.6375 258.27 49.2997C262.521 52.4675 265.334 57.9466 265.334 64.1788Z" fill="#9FB543"/>
<path d="M285.36 80H226.414C226.242 80 226.077 79.9203 225.958 79.7788C225.838 79.6372 225.775 79.4466 225.781 79.2503C226.121 68.6388 231.361 59.0209 239.84 53.3694L235.939 47.1938C235.68 46.7844 235.577 46.2847 235.647 45.7863C235.718 45.2878 235.954 44.8503 236.313 44.555C236.597 44.3213 236.931 44.1978 237.28 44.1978C237.81 44.1978 238.311 44.4909 238.621 44.9816L242.819 51.6284C246.918 49.5344 251.311 48.4728 255.887 48.4728C260.542 48.4728 265 49.5672 269.149 51.7263L273.409 44.9816C273.719 44.4909 274.221 44.1978 274.75 44.1978C275.099 44.1978 275.433 44.3216 275.717 44.555C276.457 45.1653 276.625 46.3488 276.091 47.1941L272.112 53.4928C280.482 59.1613 285.655 68.7334 285.992 79.2503C285.999 79.4469 285.935 79.6372 285.816 79.7788C285.696 79.9203 285.532 80 285.36 80ZM227.079 78.5537H284.695C284.144 68.5866 279.017 59.5797 270.879 54.3491C270.722 54.2481 270.61 54.0756 270.571 53.8741C270.532 53.6728 270.57 53.4625 270.676 53.2953L275.065 46.3475C275.19 46.1491 275.151 45.8713 274.977 45.7278C274.893 45.6588 274.808 45.6434 274.75 45.6434C274.624 45.6434 274.508 45.7113 274.435 45.8281L270.037 52.7891C270.023 52.8119 270.007 52.85 269.99 52.9028C269.929 53.0944 269.8 53.2478 269.635 53.3247C269.47 53.4016 269.284 53.3956 269.123 53.3078C265 51.0591 260.547 49.9184 255.887 49.9184C251.313 49.9184 246.931 51.0209 242.862 53.1959C242.549 53.3631 242.173 53.2109 242.024 52.8525C242.015 52.8313 242.005 52.8088 241.992 52.7884L237.595 45.8272C237.521 45.7103 237.406 45.6431 237.28 45.6431C237.223 45.6431 237.137 45.6584 237.052 45.7278C236.968 45.7966 236.913 45.8994 236.897 46.0163C236.88 46.1331 236.904 46.2506 236.965 46.3466L241.279 53.1759C241.385 53.3434 241.423 53.555 241.383 53.7569C241.344 53.9588 241.231 54.1316 241.072 54.2316C232.826 59.4456 227.633 68.4959 227.079 78.5537Z" fill="#594A42"/>
<path d="M245.074 66.7625C246.626 66.7625 247.884 65.3248 247.884 63.5512C247.884 61.7777 246.626 60.34 245.074 60.34C243.522 60.34 242.264 61.7777 242.264 63.5512C242.264 65.3248 243.522 66.7625 245.074 66.7625Z" fill="#594A42"/>
<path d="M266.196 66.7625C267.748 66.7625 269.006 65.3248 269.006 63.5512C269.006 61.7777 267.748 60.34 266.196 60.34C264.645 60.34 263.387 61.7777 263.387 63.5512C263.387 65.3248 264.645 66.7625 266.196 66.7625Z" fill="#594A42"/>
<path d="M255.883 74.3947C255.502 74.3947 255.12 74.3222 254.75 74.1747C253.881 73.8297 253.182 73.1184 252.782 72.1722C252.705 71.9913 252.638 71.795 252.583 71.5906C252.482 71.2088 252.67 70.8047 253.004 70.6884C253.339 70.5716 253.692 70.7875 253.794 71.1697C253.829 71.3009 253.871 71.4256 253.92 71.5403C254.174 72.1409 254.616 72.5906 255.165 72.8094C255.714 73.0278 256.305 72.9884 256.829 72.6988C257.388 72.3897 257.806 71.8203 257.976 71.1375C258.072 70.7531 258.423 70.5294 258.758 70.6394C259.094 70.7488 259.288 71.1491 259.193 71.5328C258.924 72.6125 258.263 73.5119 257.379 74.0003C256.905 74.2628 256.395 74.3947 255.883 74.3947Z" fill="#594A42"/>
<path d="M198.296 53.7185L202.685 46.7706C203.014 46.2481 202.911 45.5185 202.454 45.1413C201.996 44.7644 201.358 44.8819 201.028 45.4044L196.631 52.3656C196.574 52.4563 196.534 52.5544 196.502 52.6553C192.455 50.4475 187.864 49.1953 182.993 49.1953C178.209 49.1953 173.695 50.4056 169.7 52.5406C169.675 52.481 169.647 52.4213 169.611 52.3653L165.214 45.4044C164.884 44.8819 164.247 44.7647 163.789 45.1406C163.331 45.5178 163.228 46.2478 163.558 46.7697L167.873 53.5991C159.537 58.8688 153.87 68.3591 153.52 79.2769H212.467C212.119 68.4397 206.53 59.0106 198.296 53.7185Z" fill="#B6D152"/>
<path d="M168.738 57.0468C168.591 57.0468 168.45 56.9597 168.371 56.8047C168.256 56.5734 168.326 56.2787 168.527 56.1465C169.104 55.769 169.704 55.4084 170.31 55.0747C170.52 54.9609 170.772 55.06 170.873 55.3003C170.974 55.5403 170.886 55.8281 170.676 55.9437C170.088 56.2672 169.506 56.6168 168.947 56.9831C168.881 57.0259 168.809 57.0468 168.738 57.0468Z" fill="#F1F2F2"/>
<path d="M159.04 68.2303C158.971 68.2303 158.903 68.2112 158.839 68.1716C158.634 68.0447 158.558 67.7516 158.67 67.5178C160.574 63.5194 163.398 60.0044 166.835 57.3519C167.028 57.2028 167.29 57.2609 167.42 57.4816C167.551 57.7022 167.5 58.0019 167.307 58.1509C163.981 60.7175 161.251 64.1159 159.411 67.9787C159.334 68.1394 159.189 68.2303 159.04 68.2303Z" fill="#F1F2F2"/>
<path d="M192.44 64.1788C192.44 70.5563 189.495 76.1466 185.077 79.2766H212.466C212.119 68.4394 206.53 59.0103 198.295 53.7185L202.684 46.7706C203.014 46.2481 202.911 45.5184 202.454 45.1413C201.996 44.7644 201.358 44.8819 201.027 45.4044L196.63 52.3656C196.573 52.4563 196.534 52.5544 196.502 52.6553C193.121 50.8116 189.361 49.6372 185.376 49.2997C189.627 52.4672 192.44 57.946 192.44 64.1788Z" fill="#9FB543"/>
<path d="M212.466 80H153.52C153.348 80 153.184 79.92 153.065 79.7787C152.945 79.6372 152.882 79.4465 152.888 79.2503C153.228 68.6387 158.468 59.0209 166.947 53.369L163.045 47.1934C162.786 46.7837 162.683 46.284 162.754 45.7856C162.824 45.2872 163.06 44.85 163.419 44.5544C163.704 44.3206 164.038 44.1975 164.386 44.1975C164.916 44.1975 165.418 44.4906 165.728 44.9812L169.926 51.6281C174.024 49.534 178.417 48.4722 182.994 48.4722C187.648 48.4722 192.107 49.5665 196.255 51.7256L200.515 44.9812C200.826 44.4909 201.327 44.1975 201.857 44.1975C202.205 44.1975 202.54 44.3212 202.824 44.5544C203.564 45.1647 203.731 46.3487 203.198 47.1934L199.219 53.4928C207.588 59.1609 212.762 68.7334 213.099 79.2503C213.105 79.4465 213.042 79.6372 212.922 79.7787C212.803 79.92 212.638 80 212.466 80ZM154.185 78.5537H211.801C211.25 68.5862 206.124 59.579 197.985 54.349C197.828 54.2478 197.716 54.075 197.678 53.8737C197.639 53.6728 197.677 53.4625 197.782 53.2953L202.172 46.3475C202.297 46.149 202.258 45.8712 202.084 45.7278C201.999 45.6584 201.914 45.6437 201.857 45.6437C201.73 45.6437 201.615 45.7109 201.541 45.8281L197.144 52.789C197.13 52.8115 197.114 52.85 197.097 52.9031C197.036 53.094 196.907 53.2475 196.742 53.3244C196.576 53.4019 196.391 53.3959 196.23 53.3078C192.107 51.0587 187.654 49.9181 182.994 49.9181C178.42 49.9181 174.038 51.0206 169.969 53.1959C169.655 53.3631 169.28 53.2106 169.13 52.8528C169.121 52.8312 169.112 52.8087 169.099 52.7884L164.701 45.8272C164.627 45.71 164.513 45.6434 164.386 45.6434C164.329 45.6434 164.244 45.6581 164.159 45.7278C164.075 45.7965 164.02 45.8994 164.003 46.0162C163.987 46.1331 164.011 46.2506 164.072 46.3469L168.386 53.1762C168.492 53.3437 168.53 53.5553 168.49 53.7572C168.451 53.959 168.337 54.1319 168.179 54.2322C159.932 59.4456 154.74 68.4959 154.185 78.5537Z" fill="#594A42"/>
<path d="M172.18 66.7625C173.732 66.7625 174.99 65.3246 174.99 63.5509C174.99 61.7772 173.732 60.3394 172.18 60.3394C170.628 60.3394 169.37 61.7772 169.37 63.5509C169.37 65.3246 170.628 66.7625 172.18 66.7625Z" fill="#594A42"/>
<path d="M193.303 66.7625C194.855 66.7625 196.113 65.3246 196.113 63.5509C196.113 61.7772 194.855 60.3394 193.303 60.3394C191.751 60.3394 190.493 61.7772 190.493 63.5509C190.493 65.3246 191.751 66.7625 193.303 66.7625Z" fill="#594A42"/>
<path d="M177.588 72.0721H187.691" stroke="#594A42" stroke-width="2" stroke-linecap="round"/>
<path d="M50.4251 53.7181L54.8146 46.7703C55.1447 46.2478 55.0416 45.5175 54.5844 45.1413C54.1258 44.7644 53.4882 44.8813 53.1584 45.4041L48.761 52.3653C48.7036 52.4566 48.6639 52.5544 48.6322 52.655C44.5845 50.4475 39.9938 49.1953 35.1236 49.1953C30.339 49.1953 25.8259 50.405 21.8307 52.54C21.8058 52.4803 21.7774 52.4209 21.7418 52.3653L17.3444 45.4041C17.0146 44.8813 16.377 44.7647 15.9187 45.1403C15.4612 45.5175 15.3584 46.2472 15.6885 46.7703L20.0025 53.5991C11.6673 58.8681 6.00002 68.3594 5.65002 79.2769H64.5963C64.2488 68.4391 58.6603 59.0103 50.4251 53.7181Z" fill="#FB6E52"/>
<path d="M20.8682 57.0466C20.7221 57.0466 20.58 56.9597 20.502 56.8044C20.3861 56.5738 20.4561 56.2788 20.6579 56.1463C21.237 55.7669 21.8367 55.4063 22.4407 55.0747C22.6507 54.961 22.9025 55.06 23.0037 55.3006C23.1046 55.5403 23.0163 55.8285 22.806 55.9441C22.2206 56.2653 21.639 56.6147 21.0779 56.9828C21.0114 57.0253 20.9393 57.0466 20.8682 57.0466Z" fill="#F1F2F2"/>
<path d="M11.1699 68.2303C11.1016 68.2303 11.0329 68.2116 10.9687 68.1716C10.7639 68.0441 10.6884 67.7513 10.8 67.5178C12.7053 63.5184 15.5285 60.0037 18.9654 57.3522C19.1581 57.2025 19.4209 57.2609 19.5511 57.4816C19.6812 57.7022 19.6304 58.0019 19.4373 58.1512C16.1123 60.7162 13.382 64.115 11.541 67.9784C11.4641 68.1394 11.3195 68.2303 11.1699 68.2303Z" fill="#F1F2F2"/>
<path d="M44.5698 64.1778C44.5698 70.5563 41.626 76.1462 37.2078 79.2766H64.5964C64.2488 68.4387 58.6603 59.01 50.4252 53.7181L54.8147 46.7703C55.1447 46.2478 55.0416 45.5175 54.5844 45.1412C54.1259 44.7644 53.4882 44.8812 53.1585 45.4041L48.761 52.3653C48.7036 52.4566 48.664 52.5544 48.6323 52.655C45.2517 50.8109 41.4912 49.6372 37.5064 49.2987C41.7575 52.4672 44.5698 57.9453 44.5698 64.1778Z" fill="#DB5242"/>
<path d="M64.5964 80H5.65035C5.47863 80 5.31429 79.9197 5.1948 79.7785C5.07558 79.6375 5.0116 79.4466 5.01816 79.2503C5.35859 68.6385 10.5982 59.0203 19.0769 53.3681L15.1755 47.1931C14.6421 46.3485 14.8094 45.1644 15.5485 44.5544C15.834 44.3203 16.1681 44.1972 16.5165 44.1972C17.0469 44.1972 17.5482 44.4903 17.858 44.9813L22.0566 51.6272C26.1538 49.5338 30.5474 48.4725 35.1239 48.4725C39.7784 48.4725 44.2368 49.5663 48.3848 51.7253L52.6458 44.981C52.9553 44.4906 53.4568 44.1972 53.9864 44.1972C54.3353 44.1972 54.67 44.321 54.9539 44.5547C55.3126 44.8503 55.5491 45.2872 55.6191 45.7856C55.6902 46.2847 55.586 46.7844 55.3277 47.1931L51.3486 53.4922C59.7185 59.1606 64.8917 68.7328 65.2291 79.2503C65.2354 79.4469 65.1717 79.6375 65.0525 79.7785C64.933 79.9197 64.7684 80 64.5964 80ZM6.31507 78.5538H63.9314C63.3801 68.586 58.2537 59.5788 50.1151 54.3485C49.9584 54.2478 49.8463 54.075 49.8072 53.8735C49.7687 53.6725 49.8067 53.4616 49.9125 53.2944L54.3014 46.3466C54.3624 46.25 54.387 46.1331 54.3701 46.016C54.3537 45.8991 54.2982 45.7966 54.2145 45.7272C54.1294 45.6575 54.0439 45.6428 53.9864 45.6428C53.8601 45.6428 53.7453 45.7103 53.672 45.8269L49.2743 52.7878C49.2595 52.8113 49.2439 52.8485 49.2278 52.8991C49.1671 53.0916 49.0386 53.2456 48.8732 53.3228C48.708 53.401 48.5218 53.3953 48.3602 53.3069C44.2368 51.0578 39.7836 49.9175 35.1239 49.9175C30.5496 49.9175 26.1672 51.0197 22.099 53.1944C21.7859 53.3616 21.4107 53.2097 21.2609 52.8525C21.2519 52.8313 21.2434 52.8091 21.2308 52.7897L16.8318 45.8263C16.7579 45.7091 16.6434 45.6422 16.5165 45.6422C16.4593 45.6422 16.3732 45.6569 16.2882 45.7266C16.1156 45.8691 16.0765 46.1475 16.2018 46.3456L20.5158 53.1747C20.6219 53.3419 20.6599 53.5538 20.6202 53.7553C20.5809 53.9572 20.4674 54.13 20.3091 54.2303C12.0625 59.445 6.87015 68.4956 6.31507 78.5538Z" fill="#594A42"/>
<path d="M30.5897 68.8088C30.4571 68.8088 30.322 68.7803 30.1916 68.7194L18.3818 63.2141C17.8426 62.9628 17.5837 62.2597 17.8038 61.6431C18.0236 61.0269 18.6391 60.7313 19.1784 60.9825L30.9884 66.4875C31.5276 66.7391 31.7866 67.4425 31.5665 68.0591C31.3997 68.5263 31.0054 68.8088 30.5897 68.8088Z" fill="#594A42"/>
<path d="M28.4921 69.3356C28.4921 71.2728 27.1178 72.8428 25.4231 72.8428C23.728 72.8428 22.354 71.2731 22.354 69.3356C22.354 67.3978 23.728 65.8275 25.4231 65.8275C27.1178 65.8275 28.4921 67.3978 28.4921 69.3356Z" fill="#594A42"/>
<path d="M39.0264 68.8088C38.6105 68.8088 38.2162 68.5263 38.0496 68.0591C37.8295 67.4422 38.0885 66.7388 38.6274 66.4875L50.4375 60.9825C50.9759 60.7309 51.5922 61.0272 51.812 61.6431C52.0321 62.26 51.7729 62.9631 51.234 63.2141L39.4242 68.7194C39.2935 68.7806 39.1587 68.8088 39.0264 68.8088Z" fill="#594A42"/>
<path d="M41.1237 69.3356C41.1237 71.2728 42.4977 72.8428 44.193 72.8428C45.8878 72.8428 47.2618 71.2731 47.2618 69.3356C47.2618 67.3978 45.888 65.8275 44.193 65.8275C42.4977 65.8275 41.1237 67.3978 41.1237 69.3356Z" fill="#594A42"/>
<defs>
<clipPath id="clip0_36_190">
<rect width="70" height="80" fill="white" transform="translate(294)"/>
</clipPath>
</defs>
</svg>
