<svg width="75" height="43" viewBox="0 0 75 43" fill="none" xmlns="http://www.w3.org/2000/svg">
<path d="M56.3605 11.0114L61.8854 2.31564C62.3005 1.66169 62.1707 0.748029 61.5949 0.276338C61.0187 -0.195354 60.2161 -0.0482914 59.8 0.606054L54.2647 9.31866C54.1935 9.43208 54.1432 9.55489 54.103 9.68044C49.0083 6.91756 43.2294 5.35034 37.0991 5.35034C31.0766 5.35034 25.3958 6.86555 20.3669 9.53769C20.3352 9.46298 20.2994 9.38828 20.2547 9.31748L14.7191 0.605272C14.3044 -0.048291 13.5017 -0.195357 12.9252 0.275944C12.3494 0.748027 12.2196 1.66129 12.6351 2.31486L18.0656 10.8624C7.57382 17.4575 0.440558 29.3358 0 43H74.1979C73.7608 29.4363 66.726 17.6351 56.3605 11.0114Z" fill="#AAD4E2"/>
</svg>
